HIERARCHY
ROOT Hips
{
	OFFSET 0.000000 0.000000 0.000000
	CHANNELS 6 Xposition Yposition Zposition Zrotation Yrotation Xrotation
	JOINT LHipJoint
	{
		OFFSET 0.000000 0.000000 0.000000
		CHANNELS 3 Zrotation Yrotation Xrotation
		JOINT LeftUpLeg
		{
			OFFSET 1.363060 -1.794630 0.839290
			CHANNELS 3 Zrotation Yrotation Xrotation
			JOINT LeftLeg
			{
				OFFSET 2.448110 -6.726130 0.000000
				CHANNELS 3 Zrotation Yrotation Xrotation
				JOINT LeftFoot
				{
					OFFSET 2.562200 -7.039590 0.000000
					CHANNELS 3 Zrotation Yrotation Xrotation
					JOINT LeftToeBase
					{
						OFFSET 0.157640 -0.433110 2.322550
						CHANNELS 3 Zrotation Yrotation Xrotation
						End Site
						{
							OFFSET 0.000000 0.000000 0.000000
						}
					}
				}
			}
		}
	}
	JOINT RHipJoint
	{
		OFFSET 0.000000 0.000000 0.000000
		CHANNELS 3 Zrotation Yrotation Xrotation
		JOINT RightUpLeg
		{
			OFFSET -1.305520 -1.794630 0.839290
			CHANNELS 3 Zrotation Yrotation Xrotation
			JOINT RightLeg
			{
				OFFSET -2.542530 -6.985550 0.000000
				CHANNELS 3 Zrotation Yrotation Xrotation
				JOINT RightFoot
				{
					OFFSET -2.568260 -7.056230 0.000000
					CHANNELS 3 Zrotation Yrotation Xrotation
					JOINT RightToeBase
					{
						OFFSET -0.164730 -0.452590 2.363150
						CHANNELS 3 Zrotation Yrotation Xrotation
						End Site
						{
							OFFSET 0.000000 0.000000 0.000000
						}
					}
				}
			}
		}
	}
	JOINT LowerBack
	{
		OFFSET 0.000000 0.000000 0.000000
		CHANNELS 3 Zrotation Yrotation Xrotation
		JOINT Spine
		{
			OFFSET 0.028270 2.035590 -0.193380
			CHANNELS 3 Zrotation Yrotation Xrotation
			JOINT Spine1
			{
				OFFSET 0.056720 2.048850 -0.042750
				CHANNELS 3 Zrotation Yrotation Xrotation
				JOINT Neck
				{
					OFFSET 0.000000 0.000000 0.000000
					CHANNELS 3 Zrotation Yrotation Xrotation
					JOINT Neck1
					{
						OFFSET -0.054170 1.746240 0.172020
						CHANNELS 3 Zrotation Yrotation Xrotation
						JOINT Head
						{
							OFFSET 0.104070 1.761360 -0.123970
							CHANNELS 3 Zrotation Yrotation Xrotation
							End Site
							{
								OFFSET 0.000000 0.000000 0.000000
							}
						}
					}
				}
				JOINT LeftShoulder
				{
					OFFSET 0.000000 0.000000 0.000000
					CHANNELS 3 Zrotation Yrotation Xrotation
					JOINT LeftArm
					{
						OFFSET 3.362410 1.200890 -0.311210
						CHANNELS 3 Zrotation Yrotation Xrotation
						JOINT LeftForeArm
						{
							OFFSET 4.983000 -0.000000 -0.000000
							CHANNELS 3 Zrotation Yrotation Xrotation
							JOINT LeftHand
							{
								OFFSET 3.483560 -0.000000 -0.000000
								CHANNELS 3 Zrotation Yrotation Xrotation
								JOINT LeftFingerBase
								{
									OFFSET 0.000000 0.000000 0.000000
									CHANNELS 3 Zrotation Yrotation Xrotation
									JOINT LeftHandIndex1
									{
										OFFSET 0.715260 -0.000000 -0.000000
										CHANNELS 3 Zrotation Yrotation Xrotation
										End Site
										{
											OFFSET 0.000000 0.000000 0.000000
										}
									}
								}
								JOINT LThumb
								{
									OFFSET 0.000000 0.000000 0.000000
									CHANNELS 3 Zrotation Yrotation Xrotation
									End Site
									{
										OFFSET 0.000000 0.000000 0.000000
									}
								}
							}
						}
					}
				}
				JOINT RightShoulder
				{
					OFFSET 0.000000 0.000000 0.000000
					CHANNELS 3 Zrotation Yrotation Xrotation
					JOINT RightArm
					{
						OFFSET -3.136600 1.374050 -0.404650
						CHANNELS 3 Zrotation Yrotation Xrotation
						JOINT RightForeArm
						{
							OFFSET -5.241900 -0.000000 -0.000000
							CHANNELS 3 Zrotation Yrotation Xrotation
							JOINT RightHand
							{
								OFFSET -3.444170 -0.000000 -0.000000
								CHANNELS 3 Zrotation Yrotation Xrotation
								JOINT RightFingerBase
								{
									OFFSET 0.000000 0.000000 0.000000
									CHANNELS 3 Zrotation Yrotation Xrotation
									JOINT RightHandIndex1
									{
										OFFSET -0.622530 -0.000000 -0.000000
										CHANNELS 3 Zrotation Yrotation Xrotation
										End Site
										{
											OFFSET 0.000000 0.000000 0.000000
										}
									}
								}
								JOINT RThumb
								{
									OFFSET 0.000000 0.000000 0.000000
									CHANNELS 3 Zrotation Yrotation Xrotation
									End Site
									{
										OFFSET 0.000000 0.000000 0.000000
									}
								}
							}
						}
					}
				}
			}
		}
	}
}
MOTION
Frames: 5
Frame Time: 0.008333
0.755868 2.035722 -10.670074 8.099273 5.344805 -0.710498 -1.566832 1.268790 2.440669 -13.233624 3.232461 15.121297 3.223863 0.965957 21.301882 3.812613 -21.308014 9.548332 1.206749 -7.102021 11.775588 -0.833510 -2.121523 -9.070060 -12.219017 3.798462 -37.815922 3.433942 -6.968235 3.068446 0.932320 -9.386394 21.869661 -2.408362 -2.227554 -19.007917 -0.249819 -3.686089 2.161211 3.627837 -9.633384 1.852347 9.661073 -4.110662 0.690177 -0.933253 0.126817 -2.979648 0.671154 -0.093170 2.708977 2.440820 1.632065 -2.015027 -1.429686 -0.858862 -0.320648 20.308626 -28.227615 29.029900 3.991763 -11.527151 0.130262 0.265631 -0.705747 -22.160746 27.993517 -6.679843 -7.290483 0.468606 0.000000 0.000000 7.597119 -31.371881 35.520042 -1.821252 1.146495 -0.104266 -9.454675 -19.011129 -49.266872 23.162426 -41.515270 3.279869 -0.075216 -0.551260 37.012962 -2.309992 -11.923618 28.045448 -1.027703 0.000000 0.000000 -3.541584 -13.889026 -17.292225
0.737755 2.090250 -10.764864 7.994318 5.475517 -0.600902 -1.564308 1.269867 2.475014 -13.272991 3.166553 15.566494 3.148783 0.853876 21.037752 3.803351 -21.153412 9.531173 1.252332 -7.062811 11.403379 -0.845721 -2.141333 -9.125566 -12.192074 3.790905 -37.750710 3.391478 -6.929281 3.137381 0.901094 -9.324975 22.256567 -2.426090 -2.132951 -19.020103 -0.215146 -3.666122 2.099230 3.640211 -9.594192 1.849246 9.690609 -4.098356 0.789657 -0.937741 0.154166 -2.928747 0.641844 -0.111491 2.729537 2.421649 1.635868 -1.994243 -1.404254 -0.859797 -0.317547 20.142767 -28.211161 29.415615 4.150673 -11.669605 0.067709 0.277188 -0.712972 -22.267605 28.069836 -6.730446 -7.249207 0.453894 0.000000 0.000000 7.656322 -31.090097 35.834885 -1.768792 1.164012 -0.110531 -9.532331 -19.125772 -49.634007 23.354774 -41.488293 3.420724 -0.071576 -0.549875 37.270279 -2.575580 -11.816959 28.454195 -1.019742 0.000000 0.000000 -3.149960 -13.773602 -17.094225
0.714168 2.138916 -10.887305 7.878960 5.588639 -0.507805 -1.574734 1.265155 2.502984 -13.326356 3.094722 16.011253 3.071199 0.741333 20.759949 3.793195 -21.008232 9.512610 1.298722 -7.015715 11.063699 -0.843533 -2.154805 -9.159076 -12.085123 3.819940 -37.632736 3.351462 -6.891293 3.288343 0.876338 -9.199985 22.695251 -2.455935 -2.083725 -19.276600 -0.237055 -3.679948 1.962882 3.637259 -9.569047 1.821725 9.702989 -4.095495 0.852643 -0.959146 0.172540 -2.888835 0.605617 -0.143789 2.733987 2.391643 1.632163 -1.986784 -1.394017 -0.873326 -0.317151 19.904423 -28.213461 29.744543 4.294963 -11.832071 0.000068 0.287218 -0.724214 -22.412436 28.132275 -6.799544 -7.214857 0.437822 0.000000 0.000000 7.672858 -30.843809 36.105286 -1.722974 1.177832 -0.117110 -9.610448 -19.242699 -50.001045 23.545864 -41.472588 3.555515 -0.069033 -0.549989 37.511574 -2.943903 -11.758988 28.787298 -1.014057 0.000000 0.000000 -2.900708 -13.719177 -16.994669
0.684272 2.177460 -11.046918 7.754668 5.685390 -0.432367 -1.600413 1.252305 2.522111 -13.410297 3.000003 16.397053 2.980169 0.601499 20.400932 3.773651 -20.897436 9.448220 1.338103 -6.990443 10.653017 -0.874004 -2.180501 -9.214827 -12.044601 3.820498 -37.564911 3.307609 -6.847266 3.518567 0.868488 -8.897591 23.397530 -2.449379 -1.939339 -19.282663 -0.190741 -3.666076 1.907462 3.644715 -9.536965 1.796521 9.715008 -4.092672 0.915784 -0.980495 0.192618 -2.848793 0.568273 -0.176930 2.740628 2.361835 1.627697 -1.980628 -1.386082 -0.888656 -0.317330 19.646578 -28.219212 30.060434 4.434673 -11.998121 -0.068477 0.297018 -0.736005 -22.558945 28.197800 -6.871167 -7.182696 0.421355 0.000000 0.000000 7.677701 -30.615091 36.354626 -1.679743 1.191352 -0.123931 -9.693976 -19.364393 -50.374599 23.731831 -41.469357 3.685932 -0.066448 -0.550527 37.748405 -3.333273 -11.701340 29.118567 -1.008606 0.000000 0.000000 -2.641559 -13.645254 -16.864082
0.651593 2.212071 -11.203121 7.622670 5.779111 -0.354691 -1.622078 1.246989 2.548378 -13.480937 2.927840 16.801676 2.904181 0.506989 20.152927 3.766647 -20.737682 9.439142 1.387606 -6.964859 10.287468 -0.884333 -2.198049 -9.272061 -11.983180 3.816161 -37.521225 3.237500 -6.875474 3.581681 0.800084 -8.810835 23.911629 -2.459391 -1.838848 -19.298727 -0.191613 -3.683899 1.778781 3.627030 -9.537079 1.757479 9.717162 -4.098347 0.981004 -1.014185 0.206687 -2.819100 0.527185 -0.212533 2.752325 2.332723 1.619686 -1.982854 -1.388290 -0.907428 -0.317756 19.344004 -28.233114 30.332672 4.563799 -12.176026 -0.140125 0.305119 -0.750983 -22.748114 28.246525 -7.025361 -7.185349 0.399560 0.000000 0.000000 7.548112 -30.559772 36.434113 -1.664539 1.186084 -0.137218 -9.883637 -19.523670 -50.816559 23.872557 -41.529877 3.795562 -0.066384 -0.555031 37.947842 -4.034137 -11.784584 29.222523 -1.009984 0.000000 0.000000 -2.693456 -13.737206 -17.124413
